<mxfile host="app.diagrams.net" modified="2024-05-14T18:59:01.698Z" agent="Mozilla/5.0 (Macintosh; Intel Mac OS X 10_15_7) AppleWebKit/605.1.15 (KHTML, like Gecko) Version/17.4.1 Safari/605.1.15" version="24.4.0" etag="-V66HeJTuDht3e_iDrEN" type="github">
  <diagram name="Page-1" id="GqA2OaSBpuJfcy4i6Anu">
    <mxGraphModel>
      <root>
        <mxCell id="0" />
        <mxCell id="1" parent="0" />
      </root>
    </mxGraphModel>
  </diagram>
</mxfile>
